HIERARCHY
ROOT root
{
	OFFSET	0	13.1	24.9
	CHANNELS 6  Xposition Yposition Zposition Xrotation Yrotation Zrotation
	JOINT spine_1
	{
		OFFSET	0	9.99999	0
		CHANNELS 3  Xrotation Yrotation Zrotation
		JOINT spine_2
		{
			OFFSET	0	112	-10
			CHANNELS 3  Xrotation Yrotation Zrotation
			JOINT spine_3
			{
				OFFSET	0	206.5	19.3
				CHANNELS 3  Xrotation Yrotation Zrotation
				JOINT spine_4
				{
					OFFSET	0	110.4	14.6
					CHANNELS 3  Xrotation Yrotation Zrotation
					JOINT neck_1
					{
						OFFSET	0	71.8	-50.3
						CHANNELS 3  Xrotation Yrotation Zrotation
						JOINT neck_2
						{
							OFFSET	0	86.2	-25.8
							CHANNELS 3  Xrotation Yrotation Zrotation
							JOINT head_ee
							{
								OFFSET	0	179.8	-8.7
								CHANNELS 3  Xrotation Yrotation Zrotation
								End Site
								{
									OFFSET	1	0	0
								}
							}
						}
					}
					JOINT left_clavicle
					{
						OFFSET	-43.2	22.4	-70.8
						CHANNELS 3  Xrotation Yrotation Zrotation
						JOINT left_shoulder
						{
							OFFSET	-93.9	-5.79999	48.7
							CHANNELS 3  Xrotation Yrotation Zrotation
							JOINT left_elbow
							{
								OFFSET	-291.4	-30.8	15.2
								CHANNELS 3  Xrotation Yrotation Zrotation
								JOINT left_lowarm_twist
								{
									OFFSET	-110.7	-3.89999	13.6
									CHANNELS 3  Xrotation Yrotation Zrotation
									JOINT left_hand
									{
										OFFSET	-110.7	-3.89999	13.6
										CHANNELS 3  Xrotation Yrotation Zrotation
										JOINT left_ee
										{
											OFFSET	-80.8	-5.10001	12.1
											CHANNELS 3  Xrotation Yrotation Zrotation
											End Site
											{
												OFFSET	1	0	0
											}
										}
									}
								}
							}
						}
					}
					JOINT right_clavicle
					{
						OFFSET	43.2	22.4	-70.8
						CHANNELS 3  Xrotation Yrotation Zrotation
						JOINT right_shoulder
						{
							OFFSET	93.9	-5.79999	48.7
							CHANNELS 3  Xrotation Yrotation Zrotation
							JOINT right_elbow
							{
								OFFSET	291.4	-30.8	15.2
								CHANNELS 3  Xrotation Yrotation Zrotation
								JOINT right_lowarm_twist
								{
									OFFSET	110.7	-3.89999	13.6
									CHANNELS 3  Xrotation Yrotation Zrotation
									JOINT right_hand
									{
										OFFSET	110.7	-3.89999	13.6
										CHANNELS 3  Xrotation Yrotation Zrotation
										JOINT right_ee
										{
											OFFSET	80.8	-5.10001	12.1
											CHANNELS 3  Xrotation Yrotation Zrotation
											End Site
											{
												OFFSET	1	0	0
											}
										}
									}
								}
							}
						}
					}
				}
			}
		}
	}
	JOINT left_hip
	{
		OFFSET	-82.8	-127.5	0.300001
		CHANNELS 3  Xrotation Yrotation Zrotation
		JOINT left_knee
		{
			OFFSET	-28.2	-396.7	2.2
			CHANNELS 3  Xrotation Yrotation Zrotation
			JOINT left_ankle
			{
				OFFSET	-11.7	-411.3	35.4
				CHANNELS 3  Xrotation Yrotation Zrotation
				JOINT left_toes
				{
					OFFSET	0	-60	-88.6
					CHANNELS 3  Xrotation Yrotation Zrotation
					JOINT left_foot_ee
					{
						OFFSET	-22.5	-16.5	-42.2
						CHANNELS 3  Xrotation Yrotation Zrotation
						End Site
						{
							OFFSET	1	0	0
						}
					}
				}
			}
		}
	}
	JOINT right_hip
	{
		OFFSET	82.8	-127.5	0.300001
		CHANNELS 3  Xrotation Yrotation Zrotation
		JOINT right_knee
		{
			OFFSET	28.2	-396.7	2.2
			CHANNELS 3  Xrotation Yrotation Zrotation
			JOINT right_ankle
			{
				OFFSET	11.7	-411.3	35.4
				CHANNELS 3  Xrotation Yrotation Zrotation
				JOINT right_toes
				{
					OFFSET	0	-60	-88.6
					CHANNELS 3  Xrotation Yrotation Zrotation
					JOINT right_foot_ee
					{
						OFFSET	22.5	-16.5	-42.2
						CHANNELS 3  Xrotation Yrotation Zrotation
						End Site
						{
							OFFSET	1	0	0
						}
					}
				}
			}
		}
	}
}
MOTION
Frames: 10
Frame Time: 0.02
1015.53618243 738.265 -1476.01295868 13.4842005584 64.0387562154 -13.5699269811 -0.909173 0.510867 0.952941 -0.90878 0.449197 0.983514 -0.900514 0.215878 1.05946 -0.901878 0.380483 1.01208 -18.3364 14.2055 3.29518 -19.1768 25.5808 8.85182 -0.0 0.0 -0.0 -0.589583 13.2426 0.591809 -23.9971 -5.58168 77.2886 0.644024 -17.6944 0.100244 -40.1919 -2.97159 4.07441 -1.23464 12.7763 -2.51695 -0.0 0.0 -0.0 7.77202 29.0032 -13.594 0.771524 33.3038 -62.9737 1.58241 38.0894 -0.546281 8.39413 -0.219247 1.04889 3.62608 -24.1354 -32.2443 0.0 0.0 0.0 9.60392 6.70023 -3.98511 -58.9989 -2.09286 8.41423 17.0668 -2.12705 -2.39339 -40.0972 0.0 0.0 -0.0 0.0 -0.0 -0.183 25.9701 -5.88524 -17.6078 -0.316443 -2.67293 5.49438 2.67649 0.806715 32.6398 -0.0 -0.0 0.0 0.0 0.0 
1000.44024702 737.038 -1482.81354947 12.241399929 62.9658096371 -12.1844140836 -0.89424 0.311477 0.922645 -0.893802 0.252138 0.940593 -0.889215 0.0337321 0.973214 -0.890488 0.187003 0.955676 -18.4797 13.6721 3.78946 -19.2261 24.3059 9.09449 -0.0 0.0 -0.0 -0.386957 13.3217 0.935311 -24.8043 -5.93631 78.1042 0.579588 -16.0195 0.0815572 -39.3359 -2.88082 4.01256 -0.820697 13.1432 0.246211 -0.0 0.0 -0.0 6.80265 29.1274 -11.4568 1.55699 33.6891 -63.1718 1.91819 43.5331 -0.765985 9.76799 -0.240397 1.22311 3.59377 -20.3953 -31.2791 0.0 0.0 0.0 13.4589 5.83217 -5.30594 -61.6018 -2.37541 8.69951 13.3341 -2.56639 -1.90258 -40.1393 0.0 0.0 -0.0 0.0 -0.0 -1.60178 28.3481 -5.40688 -15.7903 -0.322014 -2.39414 5.73571 2.72577 0.841646 30.095 -0.0 -0.0 0.0 0.0 0.0 
983.987463907 736.598 -1483.93431472 9.89046645495 62.5078405216 -9.90468829424 -0.77398 0.224536 0.939028 -0.773505 0.164331 0.951411 -0.770372 -0.0522678 0.964081 -0.771655 0.10064 0.960238 -18.4363 13.3464 4.16185 -19.1126 23.4777 9.27557 -0.0 0.0 -0.0 -0.336606 13.7012 1.06518 -25.7965 -6.10646 78.8556 0.528913 -14.6821 0.0681411 -38.7159 -2.81564 3.96691 -0.517189 13.4212 2.26769 -0.0 0.0 -0.0 5.99531 29.1947 -9.68776 2.59611 33.8793 -63.1677 2.21518 47.6508 -0.97828 10.7556 -0.253016 1.34862 3.5653 -17.6243 -30.4265 0.0 0.0 0.0 16.9849 4.93694 -6.62807 -62.7766 -2.50714 8.82405 10.817 -3.06722 -1.56127 -40.1506 0.0 0.0 -0.0 0.0 -0.0 -2.68211 29.9275 -5.01888 -14.1845 -0.319576 -2.14778 6.00169 2.90566 0.880462 28.2676 -0.0 -0.0 0.0 0.0 0.0 
965.312449565 732.804 -1473.65626522 9.36852969197 65.8017590917 -8.96629791183 -0.731077 0.215506 0.716488 -0.730807 0.169478 0.728748 -0.728404 0.00302093 0.748189 -0.729165 0.121142 0.738323 -18.1987 13.1435 4.24259 -18.8272 23.0196 9.203 -0.0 0.0 -0.0 -0.589636 14.3374 0.734429 -26.2708 -6.38151 79.0629 0.525586 -14.5937 0.0673003 -38.3587 -2.77833 3.94031 -0.349699 13.4624 3.33511 -0.0 0.0 -0.0 5.64553 28.7831 -8.97174 4.35701 33.3022 -62.9386 2.33535 49.1526 -1.06816 11.2887 -0.258929 1.41646 3.39074 -15.7739 -28.6862 0.0 0.0 0.0 20.649 5.33944 -8.44958 -57.906 -1.97817 8.29072 8.59778 -3.94552 -1.25494 -40.1749 0.0 0.0 -0.0 0.0 -0.0 -3.89394 29.6336 -4.92701 -13.0715 -0.313835 -1.97711 6.47267 2.50644 0.94685 26.7973 -0.0 -0.0 0.0 0.0 0.0 
920.494392777 729.291 -1476.78517896 4.40649506938 68.778751569 -4.15650727622 0.357713 0.583119 0.582443 0.357737 0.544876 0.618367 0.363786 0.407332 0.716481 0.36344 0.515373 0.643163 -17.9016 12.76 4.54219 -18.4462 22.0885 9.24196 -0.0 0.0 -0.0 -1.05743 19.6986 0.737651 -29.7113 -12.3304 74.0568 0.504598 -14.0344 0.0621112 -42.1724 -3.1851 4.21228 0.074135 11.5621 5.24531 -0.0 0.0 -0.0 7.34679 28.5159 -12.7168 5.78666 33.1018 -63.5673 1.77847 41.3763 -0.671651 14.925 -0.282393 1.88025 2.0277 -0.941144 -14.0514 0.0 0.0 0.0 19.0654 7.39945 -9.86321 -37.2209 -0.299498 5.60529 7.49206 -5.24092 -1.10332 -40.1429 0.0 0.0 -0.0 0.0 -0.0 -5.773 23.858 -4.76091 -10.7839 -0.291634 -1.62684 10.5222 -0.237036 1.50618 20.9547 -0.0 -0.0 0.0 0.0 0.0 
894.949274404 728.718 -1473.73432307 7.00195343051 70.9393809221 -6.21696573665 0.458987 0.471908 0.430078 0.45898 0.443585 0.459235 0.462627 0.34154 0.539457 0.46247 0.42245 0.478749 -17.1257 12.9327 4.48137 -17.6426 22.366 9.08483 -0.0 0.0 -0.0 -1.38626 20.2727 0.338432 -30.0605 -12.3353 73.9483 0.46385 -12.9409 0.0526068 -42.3202 -3.20123 4.22227 0.662434 12.318 9.29637 -0.0 0.0 -0.0 7.54664 28.1918 -13.1915 5.77241 32.8904 -63.7252 1.69421 40.0021 -0.616717 14.4804 -0.281104 1.82348 2.08895 4.52638 -12.2478 0.0 0.0 0.0 20.0353 8.64635 -10.6004 -29.1801 0.0745947 4.42932 10.0508 -5.05108 -1.46551 -40.1229 0.0 0.0 -0.0 0.0 -0.0 -9.11827 24.6084 -5.08007 -9.80374 -0.277845 -1.47708 9.56513 -2.884 1.36689 18.7461 -0.0 -0.0 0.0 0.0 0.0 
879.660745952 723.222 -1475.72576511 6.56455597489 71.0916980706 -5.07739049 0.544465 0.653449 0.379619 0.544326 0.627968 0.420431 0.54901 0.530781 0.53794 0.549123 0.609076 0.447363 -18.5844 12.8221 4.65679 -19.1737 22.2219 9.52715 -0.0 0.0 -0.0 -1.69796 21.4379 0.0685913 -30.4209 -13.726 72.4168 0.498475 -13.8707 0.0606348 -42.608 -3.23269 4.24161 1.10516 10.0686 11.3238 -0.0 0.0 -0.0 7.76492 27.9666 -13.6961 5.85071 31.7537 -62.9309 1.79625 41.6592 -0.683442 16.0064 -0.283689 2.01836 1.89074 11.1764 -8.02704 0.0 0.0 0.0 20.2541 8.78901 -11.1748 -24.1562 0.223196 3.67287 14.4015 -1.33732 -2.03851 -39.8432 0.0 0.0 -0.0 0.0 -0.0 -10.8466 22.9511 -5.47358 -7.33642 -0.231809 -1.10129 12.0725 -4.39217 1.70625 17.7906 -0.0 -0.0 0.0 0.0 0.0 
879.709619045 723.222 -1468.26424114 6.86846656544 71.9540124828 -5.39780997166 0.544465 0.653449 0.379619 0.544326 0.627968 0.420431 0.54901 0.530781 0.53794 0.549123 0.609076 0.447363 -18.5844 12.8221 4.65679 -19.1737 22.2219 9.52715 -0.0 0.0 -0.0 -1.69796 21.4379 0.0685913 -30.4209 -13.726 72.4168 0.498475 -13.8707 0.0606348 -42.608 -3.23269 4.24161 1.10516 10.0686 11.3238 -0.0 0.0 -0.0 7.76492 27.9666 -13.6961 5.85071 31.7537 -62.9309 1.79625 41.6592 -0.683442 16.0064 -0.283689 2.01836 1.89074 11.1764 -8.02704 0.0 0.0 0.0 20.2541 8.78901 -11.1748 -24.1562 0.223196 3.67287 14.4015 -1.33732 -2.03851 -39.8432 0.0 0.0 -0.0 0.0 -0.0 -10.8466 22.9511 -5.47358 -7.33642 -0.231809 -1.10129 12.0725 -4.39217 1.70625 17.7906 -0.0 -0.0 0.0 0.0 0.0 
862.369987103 717.346 -1473.9658257 6.70738224285 71.9065668764 -4.89761278084 0.680659 0.588753 0.358967 0.680553 0.564718 0.395704 0.68452 0.474962 0.4999 0.684591 0.54795 0.418616 -19.3853 12.1881 4.05258 -19.9848 21.3934 8.87424 -0.0 0.0 -0.0 -1.49129 22.3818 0.508688 -30.2053 -14.9144 71.368 0.476259 -13.275 0.0554211 -42.895 -3.26417 4.26074 1.51743 9.50504 13.8344 -0.0 0.0 -0.0 8.27044 28.8651 -14.7058 5.7339 30.9631 -62.0332 1.69287 39.9799 -0.615858 17.079 -0.282398 2.15535 1.55144 14.6767 -4.18089 0.0 0.0 0.0 20.9362 9.6636 -11.8544 -17.1499 0.31868 2.6027 17.3927 0.777982 -2.41822 -39.1739 0.0 0.0 -0.0 0.0 -0.0 -11.9674 21.8539 -5.9031 -7.08871 -0.226294 -1.06368 14.1145 -4.66676 1.97862 17.3915 -0.0 -0.0 0.0 0.0 0.0 
862.416693449 717.346 -1468.2070581 6.94749644266 72.5493732744 -5.14975580753 0.680659 0.588753 0.358967 0.680553 0.564718 0.395704 0.68452 0.474962 0.4999 0.684591 0.54795 0.418616 -19.3853 12.1881 4.05258 -19.9848 21.3934 8.87424 -0.0 0.0 -0.0 -1.49129 22.3818 0.508688 -30.2053 -14.9144 71.368 0.476259 -13.275 0.0554211 -42.895 -3.26417 4.26074 1.51743 9.50504 13.8344 -0.0 0.0 -0.0 8.27044 28.8651 -14.7058 5.7339 30.9631 -62.0332 1.69287 39.9799 -0.615858 17.079 -0.282398 2.15535 1.55144 14.6767 -4.18089 0.0 0.0 0.0 20.9362 9.6636 -11.8544 -17.1499 0.31868 2.6027 17.3927 0.777982 -2.41822 -39.1739 0.0 0.0 -0.0 0.0 -0.0 -11.9674 21.8539 -5.9031 -7.08871 -0.226294 -1.06368 14.1145 -4.66676 1.97862 17.3915 -0.0 -0.0 0.0 0.0 0.0 
